<?xml version="1.0" encoding="UTF-8"?>
<svg xmlns="http://www.w3.org/2000/svg" version="1.1" viewBox="0 0 259.69 207.3">
  <defs>
    <clipPath id="a">
      <path d="m204.75 581.6h211.3v169.4h-211.3v-169.4"/>
    </clipPath>
    <clipPath id="b">
      <path d="m204.75 751h211.52v-169.64h-211.52v169.64"/>
    </clipPath>
    <clipPath id="c">
      <path d="m204.75 751v-169.4h215.5v169.4h-215.5"/>
    </clipPath>
  </defs>
  <g transform="translate(-228.8 -344.37)">
    <g transform="matrix(1.25 0 0 -1.25 -30.054 1281.3)">
      <g clip-path="url(#c)">
        <g clip-path="url(#b)">
          <path d="m242.37 609.75h-14.706v-4.437h4.113v-16.2h-4.113v-4.446h14.706v4.446h-4.122v16.2h4.122v4.437" fill="#274a5b"/>
          <path d="m266.52 610.24c-1.908 0-3.672-0.30604-5.283-0.909-1.611-0.60303-2.961-1.467-4.05-2.583-1.134-1.152-1.998-2.538-2.592-4.158-0.59401-1.62-0.89101-3.42-0.89101-5.409 0-2.133 0.315-4.014 0.936-5.643 0.62101-1.629 1.503-2.988 2.637-4.077 1.134-1.089 2.484-1.917 4.059-2.466 1.584-0.54901 3.303-0.81903 5.166-0.81903 1.251 0 2.241 0.054 2.961 0.17999 0.72 0.12604 1.485 0.30603 2.304 0.54004 0.63 0.17999 1.233 0.396 1.8 0.63898 0.57598 0.25201 1.179 0.513 1.8 0.79199v5.994h-0.66598c-0.306-0.27002-0.693-0.58502-1.161-0.95398-0.47699-0.36902-0.98999-0.711-1.539-1.035-0.64798-0.40497-1.359-0.71998-2.124-0.95398-0.77398-0.23401-1.548-0.35102-2.331-0.35102-0.819 0-1.656 0.12598-2.493 0.396-0.84601 0.26098-1.602 0.70202-2.295 1.314-0.66601 0.612-1.224 1.44-1.674 2.493-0.44101 1.053-0.66601 2.367-0.66601 3.933 0 1.503 0.207 2.781 0.621 3.834 0.405 1.053 0.94501 1.899 1.602 2.538 0.702 0.66601 1.458 1.134 2.277 1.422 0.819 0.28802 1.683 0.432 2.592 0.432 0.819 0 1.584-0.12597 2.304-0.36902 0.72001-0.24298 1.386-0.54901 2.007-0.90899 0.603-0.35102 1.143-0.71997 1.62-1.089s0.87301-0.68402 1.188-0.95398h0.738v6.084c-0.45898 0.22498-0.98999 0.46802-1.602 0.72901-0.612 0.27002-1.296 0.50396-2.043 0.71997-0.72 0.18902-1.503 0.34204-2.349 0.45904-0.85502 0.11701-1.8 0.18-2.853 0.18" fill="#274a5b"/>
          <path d="m301.56 609.75h-7.443l-9.261-25.083h6.525l1.746 5.058h9.279l1.737-5.058h6.678l-9.261 25.083m-6.876-15.417 3.078 8.973 3.078-8.973h-6.156" fill="#274a5b"/>
          <path d="m344.79 609.75h-5.94v-14.364l-9.153 14.364h-7.74v-25.083h5.94v17.217l10.647-17.217h6.246v25.083" fill="#274a5b"/>
          <g clip-path="url(#a)" fill="#274a5b">
            <path d="m381.54 609.75h-5.94v-14.364l-9.153 14.364h-7.74v-25.083h5.94v17.217l10.647-17.217h6.246v25.083"/>
            <path d="m312.02 748.42c-3.8451-1.2e-4 -7.7645-0.39001-11.709-1.1769-6.552-1.458-12.339-4.599-18.135-7.794-19.107-9.36-31.284-29.007-29.601-50.274l9.306 2.7c-1.134 14.994 2.925 28.314 12.285 39.186 5.688-30.195 17.973-57.636 36.261-82.647 1.6699-0.10748 3.2862-0.2149 4.889-0.2149 1.6194 0 3.2252 0.10968 4.858 0.43988-6.444 6.489-11.583 13.473-16.785 20.457 7.956 3.627 16.02 7.362 23.22 12.447-0.97199 2.43-1.674 5.085-2.916 7.254-7.578-5.742-15.426-10.719-23.814-14.454-3.897 5.841-7.254 11.853-10.503 17.919v0.594c8.928 3.627 17.532 8.118 25.542 14.013-1.404 2.601-2.916 5.31-4.491 7.632-7.524-5.841-15.264-11.259-23.382-15.588h-0.81c-4.923 10.449-8.82 21.384-11.691 32.742 2.655 2.979 5.688 5.85 8.766 8.172l8.991 2.547c22.617-25.38 37.341-54.18 45.405-85.347 2.115 2.106 4.005 4.383 4.491 7.191-1.566 4.392-2.7 8.883-4.707 13.05-1.026 3.087-3.033 5.949-3.681 8.982 5.904 4.329 11.583 9.036 17.154 14.238-0.108 3.897-1.08 7.461-2.916 10.71h-0.432c-5.472-6.165-11.691-12.177-17.919-17.37-3.357 5.463-6.444 11.043-10.116 16.398 6.273 4.761 12.339 10.503 17.91 16.56-1.998 2.601-4.599 5.364-7.578 6.39-4.761-5.31-10.116-10.881-15.588-15.372-6.597 8.388-13.743 16.722-21.645 24.354 3.2175 0.729 6.8828 1.0935 10.542 1.0935 3.6596 0 7.3136-0.3645 10.509-1.0935 18.621-3.357 36.747-21.645 39.726-40.32 3.951-20.889-3.519-40.104-20.619-52.821-6.0596-2.1978-12.52-3.3118-18.957-3.3118-13.86 0-27.604 5.1683-36.951 15.813 6.489 1.08 12.663 3.033 18.891 5.0309-0.927 1.566-2.061 3.033-2.763 4.707-17.2-6.9091-35.946-10.885-55.713-10.885-2.3774 0-4.773 0.0576-7.179 0.1745 6.7313-0.86554 13.604-1.2413 20.52-1.2413 4.3743 0 8.766 0.15039 13.149 0.42236 4.599-5.733 10.44-10.332 16.398-13.635 6.7947-3.7817 15.237-5.6669 23.738-5.6669 10.112 0 20.306 2.6691 27.894 7.9889 8.55 3.627 16.776 10.017 22.563 18.135 10.935 13.968 12.609 37.017 4.491 52.821l-3.51 6.012c-10.236 15.141-26.08 23.039-43.389 23.038"/>
          </g>
          <path d="m280.99 695.99c-15.048-7.029-31.284-11.304-48.708-12.663 1.1884-0.0182 2.3782-0.0272 3.5672-0.0272 5.844 0 11.662 0.21741 17.106 0.62128 1.134-6.867 3.465-13.311 7.2-19.098 3.897 0.75599 7.794 1.404 11.466 2.538-3.294 4.383-5.625 9.261-7.353 14.4-0.27002 1.242-1.197 2.709-0.43201 3.897 6.705 1.2419 13.257 2.763 19.476 5.085l-2.322 5.247" fill="#274a5b"/>
          <path d="m310.57 625.63c-35.46-7.9e-4 -70.956-3.4794-103.24-10.334 32.38 3.5225 66.211 5.1816 100.08 5.1816 35.879-7e-5 71.8-1.8621 106.07-5.3436-32.148 7.032-67.51 10.497-102.91 10.496" fill="#274a5b"/>
        </g>
      </g>
    </g>
  </g>
</svg>
